<svg width="90" height="32" viewBox="0 0 90 32" fill="none" xmlns="http://www.w3.org/2000/svg">
<path d="M88.7605 26.9881C88.5156 26.9881 88.2757 27.0617 88.0722 27.1995C87.8681 27.3374 87.7092 27.5333 87.6155 27.7626C87.5217 27.9918 87.4974 28.2441 87.5453 28.4874C87.5925 28.7308 87.7112 28.9543 87.884 29.1298C88.0575 29.3052 88.2783 29.4247 88.5188 29.4731C88.7593 29.5215 89.0087 29.4967 89.2351 29.4017C89.4616 29.3068 89.6549 29.146 89.7914 28.9397C89.9273 28.7334 90 28.4908 90 28.2427C90 27.9099 89.8699 27.5908 89.637 27.3556C89.4048 27.1203 89.0897 26.9881 88.7605 26.9881ZM88.7605 29.2463C88.5647 29.2463 88.3727 29.1875 88.21 29.0772C88.0467 28.9669 87.9198 28.8101 87.8445 28.6267C87.7692 28.4434 87.7501 28.2416 87.7883 28.0469C87.8266 27.8522 87.921 27.6734 88.0595 27.533C88.1985 27.3926 88.3746 27.297 88.5672 27.2583C88.7599 27.2196 88.9589 27.2394 89.1401 27.3154C89.3212 27.3914 89.4763 27.52 89.5854 27.6851C89.6944 27.8501 89.7525 28.0441 89.7525 28.2427C89.7525 28.5088 89.6479 28.7641 89.4622 28.9523C89.2759 29.1405 89.024 29.2463 88.7605 29.2463Z" fill="#333333"/>
<path d="M89.2568 27.9917C89.2568 27.892 89.2173 27.7962 89.1478 27.7256C89.0782 27.6551 88.9832 27.6154 88.8849 27.6154H88.2649V28.8699H88.513V28.3682H88.6935L89.0246 28.8699H89.3225L88.9813 28.3531C89.0597 28.3316 89.1292 28.2847 89.179 28.2194C89.2288 28.1541 89.2562 28.0742 89.2568 27.9917ZM88.8849 28.1172H88.513V27.8663H88.8849C88.9174 27.8663 88.9494 27.8795 88.9723 27.903C88.9953 27.9266 89.0087 27.9585 89.0087 27.9917C89.0087 28.0251 88.9953 28.0569 88.9723 28.0805C88.9494 28.104 88.9174 28.1172 88.8849 28.1172Z" fill="#333333"/>
<path d="M74.9815 22.5231C74.9866 22.4992 74.9847 22.4743 74.9757 22.4514C74.9675 22.4286 74.9521 22.4089 74.9324 22.3947L73.1973 21.1401C73.1775 21.1259 73.1545 21.1177 73.1303 21.1166C73.106 21.1155 73.0824 21.1216 73.062 21.134C73.0409 21.1464 73.0244 21.1645 73.0135 21.1864C73.0033 21.2082 72.9989 21.2327 73.002 21.2569L73.2495 23.3897C73.2527 23.4141 73.2623 23.4372 73.2783 23.456C73.2936 23.4747 73.3146 23.4885 73.3382 23.4954C73.3612 23.5022 73.3861 23.5021 73.4097 23.4948C73.4326 23.4875 73.453 23.4735 73.469 23.4544L73.9162 22.9004L74.3353 23.5854L74.5458 23.4534L74.1299 22.7724L74.8845 22.6196C74.9081 22.6149 74.9298 22.6032 74.9471 22.5861C74.9643 22.569 74.9764 22.547 74.9815 22.5231ZM73.906 22.562C73.8779 22.5677 73.853 22.5831 73.8345 22.6055L73.462 23.0668L73.2808 21.5091L74.5554 22.4305L73.906 22.562Z" fill="#333333"/>
<path d="M85.4746 29.7482C85.4095 29.6208 85.363 29.4623 85.3343 29.2728C84.9949 29.6551 84.5547 29.8462 84.0119 29.8462C83.499 29.8462 83.0729 29.6959 82.7341 29.3953C82.3979 29.0947 82.2302 28.7158 82.2302 28.2584C82.2302 27.6964 82.4349 27.2651 82.8451 26.9646C83.2585 26.664 83.8537 26.5121 84.6319 26.5088H85.2756V26.205C85.2756 25.9599 85.2131 25.764 85.0868 25.6169C84.9643 25.4699 84.7691 25.3964 84.5012 25.3964C84.2658 25.3964 84.0801 25.4535 83.9442 25.5679C83.8122 25.6823 83.7458 25.8391 83.7458 26.0384H82.3463C82.3463 25.7313 82.44 25.4471 82.6276 25.1856C82.8145 24.9243 83.0792 24.7201 83.4212 24.5731C83.7637 24.4228 84.1478 24.3476 84.5739 24.3476C85.2195 24.3476 85.731 24.5126 86.1087 24.8426C86.4895 25.1693 86.6803 25.63 86.6803 26.2246V28.523C86.6835 29.0261 86.753 29.4067 86.8882 29.6648V29.7482H85.4746ZM84.3174 28.7631C84.5235 28.7631 84.7142 28.7174 84.8884 28.6259C85.0625 28.5311 85.192 28.4053 85.2756 28.2485V27.3371H84.7531C84.0527 27.3371 83.6795 27.582 83.6342 28.0721L83.6298 28.1554C83.6298 28.3319 83.691 28.4773 83.8135 28.5916C83.936 28.7059 84.1044 28.7631 84.3174 28.7631Z" fill="#333333"/>
<path d="M41.8003 29.7482V21.1857H44.7636C45.7901 21.1857 46.5688 21.3857 47.0994 21.7856C47.6301 22.1815 47.8954 22.7638 47.8954 23.5322C47.8954 23.9517 47.789 24.3222 47.5759 24.6436C47.3628 24.9612 47.0665 25.1945 46.6869 25.3434C47.1207 25.4532 47.4616 25.6747 47.7095 26.008C47.9613 26.3412 48.0872 26.749 48.0872 27.2311C48.0872 28.0545 47.8277 28.6778 47.3086 29.1013C46.7895 29.5247 46.0497 29.7403 45.089 29.7482H41.8003ZM43.5434 26.0198V28.3309H45.0367C45.4473 28.3309 45.7669 28.2328 45.9955 28.0369C46.2278 27.8369 46.3441 27.5625 46.3441 27.2135C46.3441 26.4295 45.9431 26.0315 45.1413 26.0198H43.5434ZM43.5434 24.773H44.8334C45.7127 24.7573 46.1523 24.4025 46.1523 23.7086C46.1523 23.3205 46.04 23.0421 45.8153 22.8736C45.5945 22.7011 45.2439 22.6148 44.7636 22.6148H43.5434V24.773Z" fill="#333333"/>
<path d="M51.5599 29.7482C51.4953 29.6208 51.4486 29.4623 51.4195 29.2728C51.0806 29.6551 50.6399 29.8462 50.0976 29.8462C49.5844 29.8462 49.1583 29.6959 48.8193 29.3953C48.4836 29.0947 48.3158 28.7158 48.3158 28.2584C48.3158 27.6964 48.5207 27.2651 48.9307 26.9646C49.3439 26.664 49.9394 26.5121 50.7174 26.5088H51.3614V26.205C51.3614 25.9599 51.2985 25.764 51.1725 25.6169C51.0499 25.4699 50.8546 25.3964 50.5867 25.3964C50.351 25.3964 50.1654 25.4535 50.0298 25.5679C49.8975 25.6823 49.8313 25.8391 49.8313 26.0384H48.432C48.432 25.7313 48.5256 25.4471 48.7128 25.1856C48.9 24.9243 49.1647 24.7201 49.5069 24.5731C49.8491 24.4228 50.2332 24.3476 50.6593 24.3476C51.3049 24.3476 51.8165 24.5126 52.1942 24.8426C52.5751 25.1693 52.7656 25.63 52.7656 26.2246V28.523C52.7688 29.0261 52.8382 29.4067 52.9738 29.6648V29.7482H51.5599ZM50.4026 28.7631C50.6093 28.7631 50.7997 28.7174 50.974 28.6259C51.1484 28.5311 51.2775 28.4053 51.3614 28.2485V27.3371H50.8385C50.138 27.3371 49.7651 27.582 49.7199 28.0721L49.7151 28.1554C49.7151 28.3319 49.7765 28.4773 49.8991 28.5916C50.0217 28.7059 50.1896 28.7631 50.4026 28.7631Z" fill="#333333"/>
<path d="M56.7845 25.7737C56.594 25.7476 56.4262 25.7345 56.2809 25.7345C55.7515 25.7345 55.4045 25.9158 55.2398 26.2785V29.7482H53.8405V24.4457H55.1624L55.2011 25.0778C55.482 24.591 55.8709 24.3476 56.3681 24.3476C56.523 24.3476 56.6683 24.3689 56.8038 24.4114L56.7845 25.7737Z" fill="#333333"/>
<path d="M60.4063 25.7737C60.2159 25.7476 60.048 25.7345 59.9028 25.7345C59.3734 25.7345 59.0263 25.9158 58.8618 26.2785V29.7482H57.4624V24.4457H58.7842L58.823 25.0778C59.1038 24.591 59.4928 24.3476 59.9899 24.3476C60.1449 24.3476 60.2901 24.3689 60.4257 24.4114L60.4063 25.7737Z" fill="#333333"/>
<path d="M63.9749 29.7482C63.9104 29.6208 63.8639 29.4623 63.8345 29.2728C63.4956 29.6551 63.0549 29.8462 62.5126 29.8462C61.9994 29.8462 61.5733 29.6959 61.2344 29.3953C60.8986 29.0947 60.7308 28.7158 60.7308 28.2584C60.7308 27.6964 60.9357 27.2651 61.3457 26.9646C61.7589 26.664 62.3545 26.5121 63.1324 26.5088H63.7765V26.205C63.7765 25.9599 63.7133 25.764 63.5876 25.6169C63.4649 25.4699 63.2696 25.3964 63.0017 25.3964C62.7661 25.3964 62.5804 25.4535 62.4448 25.5679C62.3125 25.6823 62.2464 25.8391 62.2464 26.0384H60.847C60.847 25.7313 60.9406 25.4471 61.1278 25.1856C61.3151 24.9243 61.5797 24.7201 61.9219 24.5731C62.2641 24.4228 62.6482 24.3476 63.0743 24.3476C63.7197 24.3476 64.2313 24.5126 64.6089 24.8426C64.9904 25.1693 65.1805 25.63 65.1805 26.2246V28.523C65.1837 29.0261 65.2532 29.4067 65.3891 29.6648V29.7482H63.9749ZM62.8177 28.7631C63.0243 28.7631 63.2147 28.7174 63.3891 28.6259C63.5634 28.5311 63.6923 28.4053 63.7765 28.2485V27.3371H63.2535C62.553 27.3371 62.1801 27.582 62.135 28.0721L62.1301 28.1554C62.1301 28.3319 62.1914 28.4773 62.3141 28.5916C62.4368 28.7059 62.6046 28.7631 62.8177 28.7631Z" fill="#333333"/>
<path d="M68.4345 28.7043C68.6929 28.7043 68.9028 28.6324 69.0642 28.4887C69.2256 28.3449 69.3091 28.1538 69.3155 27.9153H70.6277C70.6245 28.2747 70.5276 28.6047 70.3375 28.9052C70.1467 29.2025 69.8852 29.4345 69.5528 29.6011C69.2236 29.7645 68.8588 29.8462 68.4588 29.8462C67.7099 29.8462 67.1192 29.6061 66.6866 29.1258C66.2541 28.6422 66.0379 27.9757 66.0379 27.1263V27.0332C66.0379 26.2164 66.2522 25.5646 66.6815 25.0778C67.1109 24.591 67.7003 24.3476 68.4492 24.3476C69.1044 24.3476 69.6287 24.5371 70.023 24.9161C70.4197 25.2918 70.6213 25.7933 70.6277 26.4206H69.3155C69.3091 26.1462 69.2256 25.924 69.0642 25.7541C68.9028 25.5809 68.6897 25.4944 68.425 25.4944C68.099 25.4944 67.8515 25.6153 67.6837 25.8571C67.5191 26.0956 67.4368 26.4843 67.4368 27.0234V27.1704C67.4368 27.716 67.5191 28.1081 67.6837 28.3466C67.8483 28.5851 68.099 28.7043 68.4345 28.7043Z" fill="#333333"/>
<path d="M74.5643 29.2091C74.2192 29.6338 73.7414 29.8462 73.1315 29.8462C72.5695 29.8462 72.1402 29.6828 71.8436 29.3561C71.5495 29.0294 71.3996 28.5507 71.3932 27.9202V24.4457H72.7922V27.8712C72.7922 28.4233 73.041 28.6994 73.5379 28.6994C74.0125 28.6994 74.3385 28.5328 74.5158 28.1995V24.4457H75.9205V29.7482H74.6032L74.5643 29.2091Z" fill="#333333"/>
<path d="M50.2435 22.3706C50.0043 22.301 49.83 22.2158 49.7205 22.1148C49.6121 22.0129 49.5578 21.8874 49.5578 21.7385C49.5578 21.5699 49.6242 21.4307 49.7568 21.3209C49.8905 21.2101 50.0638 21.1548 50.2768 21.1548C50.4222 21.1548 50.5514 21.1832 50.6647 21.24C50.779 21.2969 50.8671 21.3753 50.9291 21.4753C50.9921 21.5752 51.0235 21.6845 51.0235 21.8032H50.7432C50.7432 21.6738 50.7025 21.5723 50.6211 21.4988C50.5398 21.4243 50.425 21.3871 50.2768 21.3871C50.1394 21.3871 50.0319 21.4179 49.9544 21.4797C49.8779 21.5404 49.8396 21.6252 49.8396 21.734C49.8396 21.8213 49.876 21.8953 49.9486 21.956C50.0222 22.0158 50.1466 22.0707 50.3219 22.1207C50.4981 22.1707 50.6357 22.226 50.7344 22.2868C50.8342 22.3466 50.9078 22.4167 50.9553 22.4971C51.0037 22.5774 51.0279 22.672 51.0279 22.7808C51.0279 22.9543 50.9611 23.0935 50.8274 23.1984C50.6938 23.3022 50.5151 23.3542 50.2914 23.3542C50.1461 23.3542 50.0106 23.3263 49.8847 23.2704C49.7588 23.2135 49.6614 23.1361 49.5927 23.0381C49.5249 22.9401 49.491 22.8288 49.491 22.7044H49.7714C49.7714 22.8337 49.8183 22.9361 49.9123 23.0117C50.0072 23.0861 50.1336 23.1234 50.2914 23.1234C50.4386 23.1234 50.5514 23.093 50.6299 23.0322C50.7083 22.9714 50.7475 22.8886 50.7475 22.7837C50.7475 22.6789 50.7112 22.598 50.6385 22.5411C50.5659 22.4833 50.4342 22.4265 50.2435 22.3706Z" fill="#333333"/>
<path d="M53.8997 23.3248H53.6208V21.1842H53.8997V23.3248Z" fill="#333333"/>
<path d="M57.2479 22.3706C57.0088 22.301 56.8344 22.2158 56.725 22.1148C56.6166 22.0129 56.5623 21.8874 56.5623 21.7385C56.5623 21.5699 56.6287 21.4307 56.7613 21.3209C56.895 21.2101 57.0683 21.1548 57.2814 21.1548C57.4266 21.1548 57.5559 21.1832 57.6692 21.24C57.7835 21.2969 57.8716 21.3753 57.9336 21.4753C57.9965 21.5752 58.0281 21.6845 58.0281 21.8032H57.7477C57.7477 21.6738 57.707 21.5723 57.6257 21.4988C57.5443 21.4243 57.4296 21.3871 57.2814 21.3871C57.1438 21.3871 57.0363 21.4179 56.9589 21.4797C56.8824 21.5404 56.8441 21.6252 56.8441 21.734C56.8441 21.8213 56.8804 21.8953 56.9531 21.956C57.0267 22.0158 57.1511 22.0707 57.3264 22.1207C57.5027 22.1707 57.6402 22.226 57.7389 22.2868C57.8387 22.3466 57.9123 22.4167 57.9597 22.4971C58.0081 22.5774 58.0324 22.672 58.0324 22.7808C58.0324 22.9543 57.9655 23.0935 57.8319 23.1984C57.6983 23.3022 57.5196 23.3542 57.2959 23.3542C57.1507 23.3542 57.015 23.3263 56.8892 23.2704C56.7633 23.2135 56.666 23.1361 56.5972 23.0381C56.5294 22.9401 56.4955 22.8288 56.4955 22.7044H56.7759C56.7759 22.8337 56.8228 22.9361 56.9168 23.0117C57.0117 23.0861 57.138 23.1234 57.2959 23.1234C57.4431 23.1234 57.5559 23.093 57.6344 23.0322C57.7128 22.9714 57.752 22.8886 57.752 22.7837C57.752 22.6789 57.7157 22.598 57.6431 22.5411C57.5705 22.4833 57.4387 22.4265 57.2479 22.3706Z" fill="#333333"/>
<path d="M62.0082 21.4165H61.3284V23.3248H61.0509V21.4165H60.3725V21.1842H62.0082V21.4165Z" fill="#333333"/>
<path d="M65.673 22.3353H64.7563V23.094H65.821V23.3248H64.4775V21.1842H65.807V21.4165H64.7563V22.1045H65.673V22.3353Z" fill="#333333"/>
<path d="M68.7427 21.1842L69.4342 22.9308L70.1257 21.1842H70.4874V23.3248H70.208V22.4912L70.2341 21.5914L69.5401 23.3248H69.3264L68.6336 21.5959L68.661 22.4912V23.3248H68.3822V21.1842H68.7427Z" fill="#333333"/>
<path d="M77.5064 22.3706C77.2672 22.301 77.0924 22.2158 76.9833 22.1148C76.8748 22.0129 76.8206 21.8874 76.8206 21.7385C76.8206 21.5699 76.887 21.4307 77.0196 21.3209C77.153 21.2101 77.3265 21.1548 77.5396 21.1548C77.685 21.1548 77.8139 21.1832 77.9274 21.24C78.0416 21.2969 78.1296 21.3753 78.1915 21.4753C78.2547 21.5752 78.2859 21.6845 78.2859 21.8032H78.0059C78.0059 21.6738 77.965 21.5723 77.884 21.4988C77.8024 21.4243 77.6875 21.3871 77.5396 21.3871C77.4018 21.3871 77.2946 21.4179 77.2168 21.4797C77.1408 21.5404 77.1026 21.6252 77.1026 21.734C77.1026 21.8213 77.1389 21.8953 77.211 21.956C77.285 22.0158 77.4094 22.0707 77.5848 22.1207C77.7609 22.1707 77.8981 22.226 77.9969 22.2868C78.0971 22.3466 78.1704 22.4167 78.2177 22.4971C78.2661 22.5774 78.2904 22.672 78.2904 22.7808C78.2904 22.9543 78.224 23.0935 78.0901 23.1984C77.9567 23.3022 77.7775 23.3542 77.5542 23.3542C77.4088 23.3542 77.2735 23.3263 77.1472 23.2704C77.0216 23.2135 76.924 23.1361 76.8551 23.0381C76.7874 22.9401 76.7536 22.8288 76.7536 22.7044H77.0343C77.0343 22.8337 77.0809 22.9361 77.1747 23.0117C77.2697 23.0861 77.396 23.1234 77.5542 23.1234C77.7016 23.1234 77.8139 23.093 77.8923 23.0322C77.9708 22.9714 78.0103 22.8886 78.0103 22.7837C78.0103 22.6789 77.974 22.598 77.9012 22.5411C77.8285 22.4833 77.6971 22.4265 77.5064 22.3706Z" fill="#333333"/>
<path d="M76.8659 27.0577C76.8659 26.2311 77.0477 25.5728 77.4126 25.0828C77.7807 24.5927 78.2827 24.3476 78.9187 24.3476C79.4284 24.3476 79.8501 24.5404 80.1824 24.9259V21.1548H81.5865V29.7482H80.3228L80.2552 29.1845C79.9062 29.6256 79.4578 29.8462 78.9092 29.8462C78.2923 29.8462 77.7966 29.6011 77.4222 29.1111C77.0515 28.6177 76.8659 27.9333 76.8659 27.0577ZM78.2649 27.1606C78.2649 27.6572 78.3503 28.0378 78.5213 28.3025C78.6929 28.5671 78.9411 28.6994 79.267 28.6994C79.6995 28.6994 80.0051 28.5148 80.1824 28.1457V26.0531C80.0083 25.6839 79.7066 25.4993 79.2772 25.4993C78.6023 25.4993 78.2649 26.0531 78.2649 27.1606Z" fill="#333333"/>
<path d="M51.2247 12.4338C50.2634 16.2056 46.889 18.7044 42.9065 18.7044C37.7469 18.7044 34.2254 14.714 34.2254 10.4101C34.2254 6.33424 37.4722 2.15385 42.8574 2.15385C48.0171 2.15385 50.7832 6.01121 51.2247 8.50994H46.8203C46.3495 7.32233 45.1037 5.72619 42.8378 5.72619C40.0128 5.72619 38.4335 8.12037 38.4335 10.3816C38.4335 12.7949 40.1207 15.1226 42.8574 15.1226C45.4863 15.1226 46.5555 12.9849 46.8203 12.4243H51.2247V12.4338Z" fill="#333333"/>
<path d="M56.6982 6.43872V7.77838C57.0513 7.13234 57.6987 6.03018 59.8371 6.03018V9.63107H59.6998C57.8066 9.63107 56.914 10.2961 56.914 11.9777V18.4004H53.2159V6.43872H56.6982Z" fill="#333333"/>
<path d="M73.9621 18.4004H70.2641V17.1082C69.5975 18.2673 68.0569 18.8089 66.6152 18.8089C62.7014 18.8089 60.406 15.8351 60.406 12.4053C60.406 8.48145 63.3193 6.03018 66.6152 6.03018C68.6361 6.03018 69.7735 6.98028 70.2641 7.71184V6.43872H73.9621V18.4004ZM64.1044 12.4718C64.1044 13.5739 64.9477 15.4646 67.1747 15.4646C68.4888 15.4646 69.2836 14.8565 69.7544 14.125C70.0683 13.6499 70.2252 13.1369 70.2641 12.5953C70.3132 12.0538 70.1958 11.5217 69.9502 11.0182C69.5483 10.2011 68.7044 9.3555 67.1447 9.3555C65.0357 9.3555 64.0942 11.0752 64.0942 12.4338V12.4718H64.1044Z" fill="#333333"/>
<path d="M76.6503 2.45788H80.3483V7.38882C81.6624 6.03018 83.4186 6.03018 83.9283 6.03018C86.508 6.03018 90 7.81638 90 12.3483C90 16.6617 86.9106 18.8184 83.7714 18.8184C82.035 18.8184 80.7011 18.0013 80.1914 17.1368V18.4099H76.6503V2.45788ZM86.3122 12.3863C86.3122 10.8567 85.1155 9.36501 83.291 9.36501C81.3288 9.36501 80.2207 10.8947 80.2207 12.3863C80.2207 14.049 81.3779 15.4646 83.2221 15.4646C85.1155 15.4646 86.3122 13.973 86.3122 12.4053V12.3863Z" fill="#333333"/>
<path fill-rule="evenodd" clip-rule="evenodd" d="M37.363 22.7717C37.3398 23.0344 37.2623 23.2697 37.1306 23.4775C36.9989 23.6853 36.8304 23.8597 36.6251 24.0008C36.4237 24.1459 36.1951 24.2557 35.9394 24.3301C35.6838 24.4046 35.4204 24.4419 35.1492 24.4419C35.0485 24.4419 34.9536 24.4341 34.8645 24.4184C34.7793 24.4066 34.7018 24.3909 34.6321 24.3713C34.5624 24.3517 34.5023 24.3321 34.452 24.3125C34.4055 24.2968 34.3726 24.2831 34.3532 24.2714C34.3184 24.2517 34.2893 24.2263 34.2661 24.1949C34.2467 24.1674 34.2351 24.1263 34.2312 24.0714C34.2273 24.04 34.2254 24.0145 34.2254 23.9949C34.2254 23.9792 34.2273 23.9616 34.2312 23.942C34.2351 23.9224 34.2428 23.895 34.2544 23.8597C34.2622 23.8284 34.2738 23.7833 34.2893 23.7244C34.2971 23.6891 34.3261 23.5774 34.3764 23.3892C34.4307 23.205 34.4946 22.9795 34.5682 22.7129C34.6418 22.4424 34.7212 22.1503 34.8064 21.8367C34.8955 21.5231 34.9807 21.2192 35.0621 20.9252C35.1434 20.6311 35.217 20.3665 35.2829 20.1313C35.3487 19.8922 35.3971 19.7157 35.4282 19.602C35.3739 19.6412 35.3197 19.6824 35.2654 19.7255C35.2151 19.7686 35.1628 19.8157 35.1086 19.8666C35.0504 19.9216 34.9923 19.9412 34.9343 19.9255C34.88 19.9059 34.8413 19.8569 34.818 19.7785C34.8103 19.7392 34.8045 19.6981 34.8006 19.655C34.7967 19.6197 34.7967 19.5804 34.8006 19.5373C34.8083 19.4903 34.8238 19.4452 34.8471 19.4021C34.9749 19.3237 35.0989 19.257 35.219 19.2021C35.3429 19.1473 35.4611 19.0983 35.5734 19.0551C35.5966 18.9885 35.6218 18.9375 35.6489 18.9022C35.6799 18.8669 35.7109 18.8434 35.7419 18.8316C35.7729 18.8199 35.8058 18.8159 35.8407 18.8199C35.8755 18.8238 35.9123 18.8297 35.951 18.8375C36.0363 18.8571 36.0925 18.8845 36.1196 18.9199C36.1738 18.912 36.2261 18.9061 36.2765 18.9022C36.3268 18.8983 36.3791 18.8963 36.4333 18.8963C36.658 18.8963 36.8536 18.9257 37.0202 18.9846C37.1868 19.0433 37.3223 19.1237 37.4269 19.2257C37.5354 19.3237 37.6129 19.4393 37.6593 19.5726C37.7058 19.7059 37.7233 19.847 37.7116 19.996C37.7 20.1254 37.6651 20.2607 37.6071 20.4018C37.5528 20.539 37.4792 20.6762 37.3862 20.8135C37.2933 20.9467 37.1848 21.0781 37.0609 21.2075C36.9369 21.3329 36.7994 21.4486 36.6484 21.5544C36.7684 21.625 36.8749 21.7073 36.9679 21.8014C37.0609 21.8955 37.1383 21.9974 37.2004 22.1072C37.2623 22.217 37.3069 22.3287 37.334 22.4424C37.3611 22.5561 37.3707 22.6659 37.363 22.7717ZM35.4107 21.4486C35.4223 21.4094 35.432 21.3702 35.4398 21.331C35.4901 21.1271 35.5444 20.9252 35.6024 20.7252C35.6605 20.5253 35.7148 20.3352 35.7652 20.1548C35.8194 19.9745 35.8697 19.8098 35.9162 19.6608L36.0325 19.2785C36.1835 19.2276 36.3288 19.2021 36.4682 19.2021C36.6774 19.2021 36.8381 19.2688 36.9505 19.4021C37.0667 19.5314 37.1131 19.7314 37.0899 20.0019C37.0783 20.1156 37.0473 20.2391 36.997 20.3724C36.9505 20.5057 36.8885 20.6371 36.811 20.7664C36.7374 20.8919 36.6503 21.0114 36.5495 21.1251C36.4488 21.2349 36.3443 21.3251 36.2358 21.3957C36.1893 21.3878 36.1409 21.3819 36.0905 21.378C36.0402 21.3702 35.9879 21.3663 35.9336 21.3663C35.8329 21.3663 35.7264 21.3878 35.6141 21.431C35.5056 21.4741 35.4282 21.5211 35.3816 21.5721C35.3933 21.529 35.403 21.4878 35.4107 21.4486ZM35.1783 22.4071C35.2325 22.1602 35.2867 21.9308 35.341 21.7191C35.3448 21.7544 35.3564 21.7916 35.3758 21.8308C35.3952 21.87 35.4223 21.9053 35.4572 21.9367C35.4921 21.9641 35.5347 21.9857 35.585 22.0014C35.6354 22.0131 35.6954 22.0092 35.7652 21.9896C35.9782 21.923 36.1738 21.8406 36.352 21.7426C36.4101 21.7818 36.4643 21.8289 36.5147 21.8837C36.5689 21.9347 36.6154 21.9955 36.6542 22.0661C36.6968 22.1327 36.7277 22.2092 36.7471 22.2954C36.7703 22.3777 36.7781 22.4718 36.7703 22.5777C36.751 22.8129 36.689 23.0266 36.5844 23.2187C36.4837 23.4068 36.3578 23.5676 36.2067 23.7009C36.0557 23.8342 35.8891 23.9361 35.707 24.0067C35.5289 24.0812 35.3526 24.1184 35.1783 24.1184C35.1279 24.1184 35.0814 24.1145 35.0388 24.1067L34.9226 24.0832C34.8839 24.0753 34.8529 24.0616 34.8297 24.042C34.8955 23.7244 34.9575 23.4265 35.0156 23.1481C35.0737 22.8658 35.1279 22.6189 35.1783 22.4071Z" fill="#333333"/>
<path d="M39.3967 21.1604C39.447 21.1212 39.4954 21.0918 39.542 21.0722C39.5923 21.0487 39.6369 21.033 39.6756 21.0251C39.7182 21.0134 39.7608 21.0094 39.8034 21.0134C39.908 21.0212 39.9719 21.0545 39.9951 21.1134C40.0222 21.1722 40.0261 21.2663 40.0068 21.3957C39.9951 21.4623 39.9719 21.5466 39.9371 21.6485C39.9022 21.7505 39.8615 21.8759 39.815 22.0249C39.7685 22.1699 39.7182 22.3366 39.664 22.5248C39.6136 22.7129 39.5652 22.9247 39.5187 23.1599C39.4722 23.352 39.4218 23.5735 39.3676 23.8244C39.3212 24.0439 39.265 24.3086 39.1991 24.6183C39.1371 24.928 39.0694 25.2828 38.9958 25.6827C38.9764 25.7808 38.9338 25.8376 38.8679 25.8533C38.8059 25.8689 38.7401 25.8611 38.6704 25.8298C38.6433 25.8141 38.6181 25.7964 38.5948 25.7768C38.5754 25.7572 38.5541 25.7337 38.5309 25.7062C38.5077 25.6827 38.4883 25.6494 38.4728 25.6063C38.5619 25.277 38.6394 24.977 38.7053 24.7065C38.775 24.436 38.8369 24.2008 38.8912 24.0008C38.9493 23.7695 39.0035 23.5617 39.0539 23.3775C39.0732 23.2951 39.0907 23.2148 39.1061 23.1363C39.1255 23.054 39.1449 22.9737 39.1642 22.8953C39.1139 22.9776 39.0597 23.056 39.0016 23.1305C38.9435 23.205 38.8795 23.2697 38.8098 23.3245C38.7401 23.3794 38.6646 23.4206 38.5832 23.4481C38.5057 23.4794 38.4244 23.4892 38.3392 23.4775C38.13 23.45 37.9808 23.3716 37.8918 23.2422C37.8066 23.1129 37.7698 22.9442 37.7814 22.7365C37.7853 22.6542 37.7969 22.5639 37.8163 22.466C37.8356 22.368 37.8569 22.2739 37.8802 22.1836C37.9034 22.0935 37.9247 22.0131 37.9441 21.9426C37.9673 21.868 37.9847 21.8152 37.9963 21.7838C38.0429 21.6348 38.0758 21.5074 38.0952 21.4015C38.1184 21.2957 38.1029 21.2075 38.0487 21.1369C38.1029 21.1016 38.1533 21.0781 38.1997 21.0664C38.2501 21.0507 38.2946 21.0389 38.3334 21.031C38.376 21.0271 38.4186 21.0271 38.4612 21.031C38.5658 21.0467 38.6258 21.0859 38.6413 21.1487C38.6607 21.2114 38.6549 21.3055 38.6239 21.431C38.6084 21.4976 38.5832 21.5838 38.5483 21.6897C38.5135 21.7916 38.4767 21.8975 38.438 22.0072C38.3992 22.117 38.3644 22.2189 38.3334 22.313C38.3024 22.4032 38.2849 22.4679 38.281 22.5071C38.2462 22.6836 38.2443 22.8207 38.2752 22.9188C38.3062 23.0128 38.3741 23.0599 38.4786 23.0599C38.529 23.0599 38.5851 23.0383 38.6471 22.9952C38.7091 22.9482 38.7711 22.8874 38.833 22.8129C38.8989 22.7384 38.9629 22.6542 39.0248 22.5601C39.0868 22.4621 39.1429 22.364 39.1933 22.266C39.2476 22.168 39.2941 22.0719 39.3328 21.9778C39.3754 21.8837 39.4064 21.7995 39.4257 21.725C39.4528 21.5799 39.4703 21.4662 39.478 21.3839C39.4858 21.3016 39.4586 21.2271 39.3967 21.1604Z" fill="#333333"/>
<path d="M11.5757 22.7043C10.7568 22.7632 9.94798 22.7829 9.44252 22.7239L9.43239 22.773C9.36165 23.0086 9.29084 23.2835 9.29084 23.3423C9.32115 24.0884 9.63456 24.8638 10.0693 25.5804C10.6961 26.6209 11.5655 27.5435 12.1924 28.0932C12.8293 28.6626 13.6279 29.3693 14.5176 29.9288C15.3668 30.4589 16.2969 30.8515 17.227 30.8123C18.3289 30.773 18.3289 29.3006 18.3188 28.4172C18.3188 28.1816 18.3188 27.9755 18.3289 27.838C18.3694 27.4847 18.3492 26.5423 18.3088 25.5509C18.2582 24.373 18.1672 23.1166 18.0964 22.6553L17.9751 21.6246C17.7729 21.6736 17.4999 21.7423 17.1967 21.8209C16.2969 22.0466 15.0938 22.3608 14.1233 22.4687C13.6987 22.5178 12.6473 22.6258 11.5757 22.7043Z" fill="white"/>
<path d="M17.8639 31.0282C17.5404 31.3521 17.1259 31.4896 16.5698 31.3521C16.6002 31.4896 16.6508 31.6663 16.7215 31.8233C16.7327 31.8513 16.7441 31.9131 16.7558 31.9978C17.4648 31.9865 18.1631 31.9316 18.8476 31.8359C18.8787 31.2822 18.8516 30.6393 18.8243 30.3804L18.8142 30.3411C18.794 30.2037 18.7637 30.0466 18.703 29.9092C18.6727 29.8405 18.6424 29.7816 18.5918 29.7325C18.3998 30.2724 18.1773 30.7239 17.8639 31.0282Z" fill="white"/>
<path d="M7.77439 13.6343C7.88557 14.3509 8.37085 15.9019 8.44166 15.892C8.48209 15.8822 8.79544 15.1264 9.42226 14.5374C10.0491 13.9583 10.2917 13.9288 10.3524 13.8601C10.3827 13.8209 10.2917 13.6736 10.1704 13.5067L10.1564 13.4876C9.61313 12.7454 8.95638 11.8481 8.85612 9.60003C8.83594 9.11903 8.93699 8.27486 8.96736 7.7546C8.23942 8.66752 7.69353 9.51168 7.5621 11.0527C7.49129 11.9264 7.57222 12.7902 7.77439 13.6343Z" fill="white"/>
<path d="M27.1446 9.86502C26.164 5.18282 21.4731 4.38773 21.4731 4.38773C24.2937 5.87976 23.1513 10.3264 17.2068 11.7595C11.2521 13.1927 6.05573 15.362 9.37171 22.1742C9.37171 22.1742 13.0719 22.1742 15.2961 21.6932C17.5202 21.2123 18.5109 21.0159 21.4933 19.4061C24.4656 17.7963 28.1354 14.5473 27.1446 9.86502Z" fill="white"/>
<path fill-rule="evenodd" clip-rule="evenodd" d="M0 16C0 24.8366 7.37781 32 16.4789 32C16.5713 32 16.6637 31.9993 16.7558 31.9978C16.7441 31.9131 16.7327 31.8513 16.7215 31.8233C16.6508 31.6663 16.6002 31.4896 16.5698 31.3521C17.1259 31.4896 17.5404 31.3521 17.8639 31.0282C18.1773 30.7239 18.3998 30.2724 18.5918 29.7325C18.6424 29.7816 18.6727 29.8405 18.703 29.9092C18.7637 30.0466 18.794 30.2037 18.8142 30.3411L18.8243 30.3804C18.8516 30.6393 18.8787 31.2822 18.8476 31.8359C26.8264 30.7207 32.9577 24.0556 32.9577 16C32.9577 7.16348 25.5799 0 16.4789 0C7.37781 0 0 7.16348 0 16ZM21.4731 4.38773C21.4731 4.38773 26.164 5.18282 27.1446 9.86502C28.1354 14.5473 24.4656 17.7963 21.4933 19.4061C18.5109 21.0159 17.5202 21.2123 15.2961 21.6932C13.0719 22.1742 9.37171 22.1742 9.37171 22.1742C6.05573 15.362 11.2521 13.1927 17.2068 11.7595C23.1513 10.3264 24.2937 5.87976 21.4731 4.38773ZM9.44252 22.7239C9.94798 22.7829 10.7568 22.7632 11.5757 22.7043C12.6473 22.6258 13.6987 22.5178 14.1233 22.4687C15.0938 22.3608 16.2969 22.0466 17.1967 21.8209C17.4999 21.7423 17.7729 21.6736 17.9751 21.6246L18.0964 22.6553C18.1672 23.1166 18.2582 24.373 18.3088 25.5509C18.3492 26.5423 18.3694 27.4847 18.3289 27.838C18.3188 27.9755 18.3188 28.1816 18.3188 28.4172C18.3289 29.3006 18.3289 30.773 17.227 30.8123C16.2969 30.8515 15.3668 30.4589 14.5176 29.9288C13.6279 29.3693 12.8293 28.6626 12.1924 28.0932C11.5655 27.5435 10.6961 26.6209 10.0693 25.5804C9.63456 24.8638 9.32115 24.0884 9.29084 23.3423C9.29084 23.2835 9.36165 23.0086 9.43239 22.773L9.44252 22.7239ZM8.44166 15.892C8.37085 15.9019 7.88557 14.3509 7.77439 13.6343C7.57222 12.7902 7.49129 11.9264 7.5621 11.0527C7.69353 9.51168 8.23942 8.66752 8.96736 7.7546C8.93699 8.27486 8.83594 9.11903 8.85612 9.60003C8.95638 11.8481 9.61313 12.7454 10.1564 13.4876L10.1704 13.5067C10.2917 13.6736 10.3827 13.8209 10.3524 13.8601C10.2917 13.9288 10.0491 13.9583 9.42226 14.5374C8.79544 15.1264 8.48209 15.8822 8.44166 15.892Z" fill="#E4211D"/>
</svg>
