<svg width="473" height="421" viewBox="0 0 473 421" fill="none" xmlns="http://www.w3.org/2000/svg">
<path d="M15.0312 271L30.5 319.625H31.0938L46.5938 271H61.5938L39.5312 335H22.0938L0 271H15.0312Z" fill="#7E8389"/>
<path d="M73.3281 335V271H116.453V282.156H86.8594V297.406H114.234V308.562H86.8594V323.844H116.578V335H73.3281Z" fill="#7E8389"/>
<path d="M189.773 271V335H178.086L150.242 294.719H149.773V335H136.242V271H148.117L175.742 311.25H176.305V271H189.773Z" fill="#7E8389"/>
<path d="M208.547 282.156V271H261.109V282.156H241.516V335H228.141V282.156H208.547Z" fill="#7E8389"/>
<path d="M318.328 271H331.859V312.562C331.859 317.229 330.745 321.312 328.516 324.812C326.307 328.312 323.214 331.042 319.234 333C315.255 334.938 310.62 335.906 305.328 335.906C300.016 335.906 295.37 334.938 291.391 333C287.411 331.042 284.318 328.312 282.109 324.812C279.901 321.312 278.797 317.229 278.797 312.562V271H292.328V311.406C292.328 313.844 292.859 316.01 293.922 317.906C295.005 319.802 296.526 321.292 298.484 322.375C300.443 323.458 302.724 324 305.328 324C307.953 324 310.234 323.458 312.172 322.375C314.13 321.292 315.641 319.802 316.703 317.906C317.786 316.01 318.328 313.844 318.328 311.406V271Z" fill="#7E8389"/>
<path fill-rule="evenodd" clip-rule="evenodd" d="M425.836 335H411.336L433.43 271H450.867L472.93 335H458.43L453.691 320.406H430.584L425.836 335ZM441.898 285.625H442.398L450.262 309.844H434.02L441.898 285.625Z" fill="#7E8389"/>
<path fill-rule="evenodd" clip-rule="evenodd" d="M350.023 335V271H375.273C380.107 271 384.232 271.865 387.648 273.594C391.086 275.302 393.701 277.729 395.492 280.875C397.305 284 398.211 287.677 398.211 291.906C398.211 296.156 397.294 299.813 395.461 302.875C393.628 305.917 390.971 308.25 387.492 309.875C387.301 309.965 387.108 310.052 386.913 310.136L400.492 335H385.555L373.432 312.312H363.555V335H350.023ZM379.18 300.375C377.471 301.083 375.326 301.438 372.742 301.438H363.555V282.062H372.68C375.284 282.062 377.44 282.448 379.148 283.219C380.878 283.969 382.159 285.073 382.992 286.531C383.846 287.99 384.273 289.781 384.273 291.906C384.273 294.01 383.846 295.771 382.992 297.188C382.159 298.604 380.888 299.667 379.18 300.375Z" fill="#7E8389"/>
<path d="M30 368.54C30 367.66 30.3 366.94 30.9 366.38C31.54 365.82 32.34 365.54 33.3 365.54H50.52C53.24 365.54 55.64 366.1 57.72 367.22C59.84 368.3 61.48 369.86 62.64 371.9C63.8 373.9 64.38 376.22 64.38 378.86C64.38 381.54 63.8 383.9 62.64 385.94C61.52 387.98 59.9 389.56 57.78 390.68C55.7 391.76 53.28 392.3 50.52 392.3H36.48V402.98C36.48 404.62 35.92 405.88 34.8 406.76C33.68 407.64 32.08 408.08 30 408.08V368.54ZM50.52 386.66C52.84 386.66 54.66 385.98 55.98 384.62C57.3 383.22 57.96 381.3 57.96 378.86C57.96 376.5 57.28 374.64 55.92 373.28C54.6 371.88 52.8 371.18 50.52 371.18H36.48V386.66H50.52Z" fill="#7E8389"/>
<path d="M79.3341 408.08C76.8941 408.08 74.6941 407.6 72.7341 406.64C70.7741 405.68 69.2341 404.36 68.1141 402.68C66.9941 401 66.4341 399.12 66.4341 397.04V388.46C66.4341 386.3 67.0141 384.36 68.1741 382.64C69.3741 380.88 70.9541 379.5 72.9141 378.5C74.8741 377.5 77.0141 377 79.3341 377C81.6541 377 83.7741 377.48 85.6941 378.44C87.6141 379.4 89.1341 380.74 90.2541 382.46C91.3741 384.14 91.9341 386.06 91.9341 388.22V391.94C91.9341 392.62 91.6541 393.22 91.0941 393.74C90.5741 394.22 89.9341 394.46 89.1741 394.46H72.2541V396.74C72.2541 398.66 72.8541 400.22 74.0541 401.42C75.2541 402.58 77.0141 403.16 79.3341 403.16C81.6541 403.16 83.3941 402.66 84.5541 401.66C85.7541 400.62 86.3541 399.26 86.3541 397.58C87.7941 397.46 88.9741 397.7 89.8941 398.3C90.8141 398.86 91.2741 399.72 91.2741 400.88C91.2741 402.12 90.7141 403.3 89.5941 404.42C88.5141 405.5 87.0541 406.38 85.2141 407.06C83.4141 407.74 81.4541 408.08 79.3341 408.08ZM86.4741 389.96V388.22C86.4741 386.34 85.8141 384.82 84.4941 383.66C83.1741 382.46 81.4541 381.86 79.3341 381.86C77.2141 381.86 75.4941 382.46 74.1741 383.66C72.8941 384.82 72.2541 386.34 72.2541 388.22V389.96H86.4741Z" fill="#7E8389"/>
<path d="M98.4961 381.86C98.4961 378.62 100.416 377 104.256 377V380.78C103.856 381.18 103.416 381.74 102.936 382.46L103.236 382.7C104.436 380.98 105.976 379.6 107.856 378.56C109.776 377.52 111.856 377 114.096 377C117.296 377 119.836 377.98 121.716 379.94C123.596 381.86 124.536 384.34 124.536 387.38V404C124.536 405.4 124.036 406.44 123.036 407.12C122.076 407.76 120.596 408.08 118.596 408.08V388.1C118.596 386.34 118.076 384.92 117.036 383.84C115.996 382.76 114.476 382.22 112.476 382.22C111.076 382.22 109.756 382.54 108.516 383.18C107.276 383.78 106.296 384.6 105.576 385.64C104.856 386.68 104.496 387.82 104.496 389.06V404C104.496 405.44 103.996 406.48 102.996 407.12C102.036 407.76 100.536 408.08 98.4961 408.08V381.86Z" fill="#7E8389"/>
<path d="M143.293 408.08C141.093 408.08 139.053 407.78 137.173 407.18C135.333 406.54 133.873 405.64 132.793 404.48C131.713 403.28 131.173 401.92 131.173 400.4C131.173 398.36 132.513 397.28 135.193 397.16C135.553 399.24 136.453 400.8 137.893 401.84C139.373 402.84 141.193 403.34 143.353 403.34C145.593 403.34 147.333 403.02 148.573 402.38C149.813 401.74 150.433 400.78 150.433 399.5C150.433 398.22 149.873 397.22 148.753 396.5C147.673 395.78 145.633 395.1 142.633 394.46C139.873 393.82 137.693 393.16 136.093 392.48C134.493 391.8 133.293 390.9 132.493 389.78C131.693 388.62 131.293 387.14 131.293 385.34C131.293 383.74 131.773 382.32 132.733 381.08C133.693 379.8 135.033 378.8 136.753 378.08C138.513 377.36 140.533 377 142.813 377C144.973 377 146.953 377.28 148.753 377.84C150.593 378.4 152.053 379.22 153.133 380.3C154.253 381.34 154.813 382.56 154.813 383.96C154.813 385.92 153.333 386.96 150.373 387.08C150.173 385.4 149.433 384.08 148.153 383.12C146.913 382.16 145.193 381.68 142.993 381.68C141.193 381.68 139.733 382.02 138.613 382.7C137.493 383.34 136.933 384.2 136.933 385.28C136.933 386.4 137.433 387.26 138.433 387.86C139.473 388.42 141.233 388.98 143.713 389.54C147.993 390.42 151.133 391.62 153.133 393.14C155.133 394.62 156.133 396.72 156.133 399.44C156.133 402.16 154.993 404.28 152.713 405.8C150.473 407.32 147.333 408.08 143.293 408.08Z" fill="#7E8389"/>
<path d="M170.917 408.08C167.597 408.08 164.877 407.18 162.757 405.38C160.637 403.54 159.577 401.1 159.577 398.06C159.577 394.98 160.697 392.52 162.937 390.68C165.177 388.84 168.077 387.92 171.637 387.92C175.397 387.92 178.497 389.2 180.937 391.76L181.177 391.52C180.657 390.96 180.117 390.44 179.557 389.96V387.92C179.557 386 178.937 384.52 177.697 383.48C176.457 382.4 174.717 381.86 172.477 381.86C168.437 381.86 165.517 383.42 163.717 386.54C162.957 386.22 162.337 385.78 161.857 385.22C161.417 384.62 161.197 384.02 161.197 383.42C161.197 382.3 161.737 381.26 162.817 380.3C163.897 379.3 165.337 378.5 167.137 377.9C168.937 377.3 170.857 377 172.897 377C176.817 377 179.897 377.96 182.137 379.88C184.377 381.8 185.497 384.42 185.497 387.74V403.7C185.497 405.22 185.037 406.34 184.117 407.06C183.197 407.74 181.777 408.08 179.857 408.08V405.38C180.697 404.46 181.157 403.94 181.237 403.82L180.997 403.58C179.677 405.1 178.197 406.24 176.557 407C174.957 407.72 173.077 408.08 170.917 408.08ZM172.177 403.52C174.537 403.52 176.377 403.04 177.697 402.08C179.017 401.12 179.677 399.78 179.677 398.06C179.677 396.34 179.017 394.98 177.697 393.98C176.377 392.98 174.577 392.48 172.297 392.48C170.177 392.48 168.497 392.98 167.257 393.98C166.017 394.98 165.397 396.34 165.397 398.06C165.397 399.78 165.997 401.12 167.197 402.08C168.397 403.04 170.057 403.52 172.177 403.52Z" fill="#7E8389"/>
<path d="M204.165 408.08C201.925 408.08 199.925 407.64 198.165 406.76C196.445 405.88 195.085 404.64 194.085 403.04C193.125 401.44 192.645 399.6 192.645 397.52V387.5C192.645 385.46 193.145 383.64 194.145 382.04C195.145 380.44 196.545 379.2 198.345 378.32C200.185 377.44 202.245 377 204.525 377C206.245 377 207.905 377.36 209.505 378.08C211.145 378.8 212.545 379.76 213.705 380.96L213.885 380.66C213.645 380.34 213.225 379.92 212.625 379.4V369.38C212.625 367.98 213.125 366.9 214.125 366.14C215.125 365.38 216.645 365 218.685 365V403.52C218.685 404.88 218.225 405.98 217.305 406.82C216.425 407.66 215.025 408.08 213.105 408.08V404.72C213.665 404 214.045 403.48 214.245 403.16L214.005 402.92C212.765 404.56 211.365 405.84 209.805 406.76C208.245 407.64 206.365 408.08 204.165 408.08ZM205.665 402.86C207.665 402.86 209.325 402.34 210.645 401.3C212.005 400.26 212.685 398.98 212.685 397.46V387.56C212.685 386.04 212.025 384.78 210.705 383.78C209.425 382.74 207.725 382.22 205.605 382.22C203.365 382.22 201.625 382.72 200.385 383.72C199.185 384.68 198.585 386.04 198.585 387.8V397.16C198.585 399 199.185 400.42 200.385 401.42C201.625 402.38 203.385 402.86 205.665 402.86Z" fill="#7E8389"/>
<path d="M238.05 408.08C235.53 408.08 233.27 407.62 231.27 406.7C229.27 405.78 227.69 404.52 226.53 402.92C225.41 401.28 224.85 399.46 224.85 397.46V388.04C224.85 386 225.41 384.14 226.53 382.46C227.65 380.78 229.21 379.46 231.21 378.5C233.21 377.5 235.49 377 238.05 377C240.61 377 242.89 377.5 244.89 378.5C246.89 379.46 248.45 380.78 249.57 382.46C250.73 384.14 251.31 386 251.31 388.04V397.46C251.31 399.46 250.73 401.28 249.57 402.92C248.45 404.52 246.87 405.78 244.83 406.7C242.83 407.62 240.57 408.08 238.05 408.08ZM238.05 402.92C240.33 402.92 242.13 402.4 243.45 401.36C244.77 400.28 245.43 398.86 245.43 397.1V388.28C245.43 386.44 244.75 384.96 243.39 383.84C242.07 382.72 240.29 382.16 238.05 382.16C235.81 382.16 234.01 382.72 232.65 383.84C231.33 384.96 230.67 386.44 230.67 388.28V397.1C230.67 398.86 231.33 400.28 232.65 401.36C233.97 402.4 235.77 402.92 238.05 402.92Z" fill="#7E8389"/>
<path d="M273.281 381.56C273.281 380.2 273.741 379.1 274.661 378.26C275.621 377.42 277.041 377 278.921 377V380.3C278.721 380.58 278.521 380.86 278.321 381.14C278.121 381.38 277.921 381.64 277.721 381.92L277.961 382.16C279.201 380.52 280.601 379.26 282.161 378.38C283.761 377.46 285.681 377 287.921 377C291.321 377 294.061 377.98 296.141 379.94C298.261 381.86 299.321 384.4 299.321 387.56V397.58C299.321 400.74 298.201 403.28 295.961 405.2C293.761 407.12 290.901 408.08 287.381 408.08C285.661 408.08 284.001 407.72 282.401 407C280.801 406.24 279.421 405.26 278.261 404.06L278.081 404.36C278.361 404.76 278.781 405.2 279.341 405.68V415.7C279.341 418.62 277.321 420.08 273.281 420.08V381.56ZM286.361 402.86C288.601 402.86 290.341 402.36 291.581 401.36C292.821 400.36 293.441 398.98 293.441 397.22V387.86C293.441 386.06 292.821 384.68 291.581 383.72C290.341 382.72 288.581 382.22 286.301 382.22C284.301 382.22 282.621 382.74 281.261 383.78C279.941 384.78 279.281 386.04 279.281 387.56V397.52C279.281 399.04 279.921 400.32 281.201 401.36C282.521 402.36 284.241 402.86 286.361 402.86Z" fill="#7E8389"/>
<path d="M316.464 408.08C313.144 408.08 310.424 407.18 308.304 405.38C306.184 403.54 305.124 401.1 305.124 398.06C305.124 394.98 306.244 392.52 308.484 390.68C310.724 388.84 313.624 387.92 317.184 387.92C320.944 387.92 324.044 389.2 326.484 391.76L326.724 391.52C326.204 390.96 325.664 390.44 325.104 389.96V387.92C325.104 386 324.484 384.52 323.244 383.48C322.004 382.4 320.264 381.86 318.024 381.86C313.984 381.86 311.064 383.42 309.264 386.54C308.504 386.22 307.884 385.78 307.404 385.22C306.964 384.62 306.744 384.02 306.744 383.42C306.744 382.3 307.284 381.26 308.364 380.3C309.444 379.3 310.884 378.5 312.684 377.9C314.484 377.3 316.404 377 318.444 377C322.364 377 325.444 377.96 327.684 379.88C329.924 381.8 331.044 384.42 331.044 387.74V403.7C331.044 405.22 330.584 406.34 329.664 407.06C328.744 407.74 327.324 408.08 325.404 408.08V405.38C326.244 404.46 326.704 403.94 326.784 403.82L326.544 403.58C325.224 405.1 323.744 406.24 322.104 407C320.504 407.72 318.624 408.08 316.464 408.08ZM317.724 403.52C320.084 403.52 321.924 403.04 323.244 402.08C324.564 401.12 325.224 399.78 325.224 398.06C325.224 396.34 324.564 394.98 323.244 393.98C321.924 392.98 320.124 392.48 317.844 392.48C315.724 392.48 314.044 392.98 312.804 393.98C311.564 394.98 310.944 396.34 310.944 398.06C310.944 399.78 311.544 401.12 312.744 402.08C313.944 403.04 315.604 403.52 317.724 403.52Z" fill="#7E8389"/>
<path d="M352.532 382.22C350.252 382.22 348.372 382.88 346.892 384.2C345.412 385.52 344.672 387.14 344.672 389.06V404C344.672 405.44 344.172 406.48 343.172 407.12C342.212 407.76 340.712 408.08 338.672 408.08V381.86C338.672 378.62 340.592 377 344.432 377V380.6C343.912 381.2 343.452 381.82 343.052 382.46L343.352 382.7C345.872 378.9 349.052 377 352.892 377C354.412 377 355.572 377.38 356.372 378.14C357.212 378.9 357.632 379.84 357.632 380.96C357.632 381.8 357.412 382.52 356.972 383.12C355.852 382.52 354.372 382.22 352.532 382.22Z" fill="#7E8389"/>
<path d="M370.78 408.08C367.46 408.08 364.74 407.18 362.62 405.38C360.5 403.54 359.44 401.1 359.44 398.06C359.44 394.98 360.56 392.52 362.8 390.68C365.04 388.84 367.94 387.92 371.5 387.92C375.26 387.92 378.36 389.2 380.8 391.76L381.04 391.52C380.52 390.96 379.98 390.44 379.42 389.96V387.92C379.42 386 378.8 384.52 377.56 383.48C376.32 382.4 374.58 381.86 372.34 381.86C368.3 381.86 365.38 383.42 363.58 386.54C362.82 386.22 362.2 385.78 361.72 385.22C361.28 384.62 361.06 384.02 361.06 383.42C361.06 382.3 361.6 381.26 362.68 380.3C363.76 379.3 365.2 378.5 367 377.9C368.8 377.3 370.72 377 372.76 377C376.68 377 379.76 377.96 382 379.88C384.24 381.8 385.36 384.42 385.36 387.74V403.7C385.36 405.22 384.9 406.34 383.98 407.06C383.06 407.74 381.64 408.08 379.72 408.08V405.38C380.56 404.46 381.02 403.94 381.1 403.82L380.86 403.58C379.54 405.1 378.06 406.24 376.42 407C374.82 407.72 372.94 408.08 370.78 408.08ZM372.04 403.52C374.4 403.52 376.24 403.04 377.56 402.08C378.88 401.12 379.54 399.78 379.54 398.06C379.54 396.34 378.88 394.98 377.56 393.98C376.24 392.98 374.44 392.48 372.16 392.48C370.04 392.48 368.36 392.98 367.12 393.98C365.88 394.98 365.26 396.34 365.26 398.06C365.26 399.78 365.86 401.12 367.06 402.08C368.26 403.04 369.92 403.52 372.04 403.52Z" fill="#7E8389"/>
<path d="M421.177 408.08C418.177 408.08 415.957 407.24 414.517 405.56C413.077 403.84 412.357 401.6 412.357 398.84V382.22H406.597C406.597 380.66 406.917 379.5 407.557 378.74C408.197 377.94 409.057 377.54 410.137 377.54H412.477V372.08C412.477 370.64 412.957 369.6 413.917 368.96C414.877 368.32 416.337 368 418.297 368V377.54H426.277C426.277 379.14 425.937 380.32 425.257 381.08C424.617 381.84 423.597 382.22 422.197 382.22H418.417V398.6C418.417 400.12 418.697 401.22 419.257 401.9C419.817 402.54 420.817 402.86 422.257 402.86C423.657 402.86 425.017 402.48 426.337 401.72C426.977 402.36 427.297 403.16 427.297 404.12C427.297 405.16 426.757 406.08 425.677 406.88C424.597 407.68 423.097 408.08 421.177 408.08Z" fill="#7E8389"/>
<path d="M437.679 373.04C436.479 373.04 435.459 372.66 434.619 371.9C433.779 371.14 433.359 370.18 433.359 369.02C433.359 367.86 433.779 366.9 434.619 366.14C435.459 365.38 436.479 365 437.679 365C438.879 365 439.879 365.38 440.679 366.14C441.519 366.9 441.939 367.86 441.939 369.02C441.939 370.18 441.519 371.14 440.679 371.9C439.879 372.66 438.879 373.04 437.679 373.04ZM434.679 381.08C434.679 379.64 435.159 378.6 436.119 377.96C437.119 377.32 438.619 377 440.619 377V404C440.619 405.4 440.119 406.44 439.119 407.12C438.159 407.76 436.679 408.08 434.679 408.08V381.08Z" fill="#7E8389"/>
<path d="M354 227V0L284 70V156H275H198L127 227H354Z" fill="#E82B31"/>
<path d="M354 0H127V227L198 156V79V70H284L354 0Z" fill="#A02E23"/>
<path d="M284 156V70L275 79V156H284Z" fill="#4B2A19"/>
<path d="M119 8V235L127 227V0L119 8Z" fill="#4B2A19"/>
<path d="M284 70H198V79H275L284 70Z" fill="#692A18"/>
<path d="M354 227H127L119 235H346L354 227Z" fill="#692A18"/>
</svg>
